0
SECTION
2
HEADER
9
$INSUNITS
70
4
0
ENDSEC
0
SECTION
2
TABLES
0
TABLE
2
LTYPE
0
LTYPE
72
65
70
64
2
CONTINUOUS
3
______
73
0
40
0
0
ENDTAB
0
TABLE
2
LAYER
0
ENDTAB
0
ENDSEC
0
SECTION
2
ENTITIES
0
LINE
8
0
10
88.475
20
-159.525
11
88.475
21
-64.275
0
LINE
8
0
10
90.475
20
-62.275
11
124.5049
21
-62.275
0
LINE
8
0
10
126.5048
20
-60.255001
11
126.4952
21
-59.294999
0
LINE
8
0
10
128.4951
20
-57.275
11
143.5106632
21
-57.275
0
LINE
8
0
10
145.5106122
20
-55.2607146
11
145.4893878
21
-52.2892854
0
LINE
8
0
10
147.4893368
20
-50.275
11
166.5049
21
-50.275
0
LINE
8
0
10
168.5048
20
-48.255001
11
168.4952
21
-47.294999
0
LINE
8
0
10
170.4951
20
-45.275
11
185.5082975
21
-45.275
0
LINE
8
0
10
187.5082283
20
-47.2916328
11
187.4918717
21
-49.2583672
0
LINE
8
0
10
189.4918025
20
-51.275
11
204.4913889
21
-51.275
0
LINE
8
0
10
206.4911112
20
-53.3083288
11
206.475
21
-54.275
0
LINE
8
0
10
206.475
20
-54.275
11
223.525
21
-54.275
0
LINE
8
0
10
225.525
20
-56.275
11
225.525
21
-151.525
0
LINE
8
0
10
223.525
20
-153.525
11
204.475
21
-153.525
0
LINE
8
0
10
204.475
20
-153.525
11
206.525
21
-150.525
0
LINE
8
0
10
206.525
20
-150.525
11
186.927974
21
-150.525
0
LINE
8
0
10
185.025906
20
-149.1431722
11
183.974094
21
-145.9068278
0
LINE
8
0
10
182.072026
20
-144.525
11
166.4951
21
-144.525
0
LINE
8
0
10
164.4952
20
-146.544999
11
164.5048
21
-147.505001
0
LINE
8
0
10
162.5049
20
-149.525
11
151.4893368
21
-149.525
0
LINE
8
0
10
149.4893878
20
-151.5392854
11
149.5106122
21
-154.5107146
0
LINE
8
0
10
147.5106632
20
-156.525
11
132.4951
21
-156.525
0
LINE
8
0
10
130.4952
20
-158.544999
11
130.5048
21
-159.505001
0
LINE
8
0
10
90.475
20
-161.525
11
128.5049
21
-161.525
0
ARC
8
0
10
90.475
20
-64.275
40
2
50
90
51
180
0
ARC
8
0
10
124.5049
20
-60.275
40
2
50
270
51
0.5729387
0
ARC
8
0
10
128.4951
20
-59.275
40
2
50
90
51
180.5729387
0
ARC
8
0
10
143.5106632
20
-55.275
40
2
50
270
51
0.40925
0
ARC
8
0
10
147.4893368
20
-52.275
40
2
50
90
51
180.40925
0
ARC
8
0
10
166.5049
20
-48.275
40
2
50
270
51
0.5729387
0
ARC
8
0
10
170.4951
20
-47.275
40
2
50
90
51
180.5729387
0
ARC
8
0
10
185.5082975
20
-47.275
40
2
50
359.5234999
51
90
0
ARC
8
0
10
189.4918025
20
-49.275
40
2
50
179.5234999
51
270
0
ARC
8
0
10
204.4913889
20
-53.275
40
2
50
359.045156
51
90
0
ARC
8
0
10
223.525
20
-56.275
40
2
50
0
51
90
0
ARC
8
0
10
223.525
20
-151.525
40
2
50
270
51
0
0
ARC
8
0
10
186.927974
20
-148.525
40
2
50
198.0041626
51
270
0
ARC
8
0
10
182.072026
20
-146.525
40
2
50
18.0041626
51
90
0
ARC
8
0
10
166.4951
20
-146.525
40
2
50
90
51
180.5729387
0
ARC
8
0
10
162.5049
20
-147.525
40
2
50
270
51
0.5729387
0
ARC
8
0
10
151.4893368
20
-151.525
40
2
50
90
51
180.40925
0
ARC
8
0
10
147.5106632
20
-154.525
40
2
50
270
51
0.40925
0
ARC
8
0
10
132.4951
20
-158.525
40
2
50
90
51
180.5729387
0
ARC
8
0
10
128.5049
20
-159.525
40
2
50
270
51
0.5729387
0
ARC
8
0
10
90.475
20
-159.525
40
2
50
180
51
270
0
ENDSEC
0
EOF