0
SECTION
2
HEADER
9
$INSUNITS
70
4
0
ENDSEC
0
SECTION
2
TABLES
0
TABLE
2
LTYPE
0
LTYPE
72
65
70
64
2
CONTINUOUS
3
______
73
0
40
0
0
ENDTAB
0
TABLE
2
LAYER
0
ENDTAB
0
ENDSEC
0
SECTION
2
ENTITIES
0
LINE
8
0
10
399.525
20
-159.525
11
399.525
21
-64.275
0
LINE
8
0
10
397.525
20
-62.275
11
363.4951
21
-62.275
0
LINE
8
0
10
361.4952
20
-60.255001
11
361.5048
21
-59.294999
0
LINE
8
0
10
359.5049
20
-57.275
11
344.4893368
21
-57.275
0
LINE
8
0
10
342.4893878
20
-55.2607146
11
342.5106122
21
-52.2892854
0
LINE
8
0
10
340.5106632
20
-50.275
11
321.4951
21
-50.275
0
LINE
8
0
10
319.4952
20
-48.255001
11
319.5048
21
-47.294999
0
LINE
8
0
10
317.5049
20
-45.275
11
302.4917025
21
-45.275
0
LINE
8
0
10
300.4917717
20
-47.2916328
11
300.5081283
21
-49.2583672
0
LINE
8
0
10
298.5081975
20
-51.275
11
283.5086111
21
-51.275
0
LINE
8
0
10
281.5088888
20
-53.3083288
11
281.525
21
-54.275
0
LINE
8
0
10
281.525
20
-54.275
11
264.475
21
-54.275
0
LINE
8
0
10
262.475
20
-56.275
11
262.475
21
-151.525
0
LINE
8
0
10
264.475
20
-153.525
11
283.525
21
-153.525
0
LINE
8
0
10
283.525
20
-153.525
11
281.475
21
-150.525
0
LINE
8
0
10
281.475
20
-150.525
11
301.072026
21
-150.525
0
LINE
8
0
10
302.974094
20
-149.1431722
11
304.025906
21
-145.9068278
0
LINE
8
0
10
305.927974
20
-144.525
11
321.5049
21
-144.525
0
LINE
8
0
10
323.5048
20
-146.544999
11
323.4952
21
-147.505001
0
LINE
8
0
10
325.4951
20
-149.525
11
336.5106632
21
-149.525
0
LINE
8
0
10
338.5106122
20
-151.5392854
11
338.4893878
21
-154.5107146
0
LINE
8
0
10
340.4893368
20
-156.525
11
355.5049
21
-156.525
0
LINE
8
0
10
357.5048
20
-158.544999
11
357.4952
21
-159.505001
0
LINE
8
0
10
359.4951
20
-161.525
11
397.525
21
-161.525
0
ARC
8
0
10
397.525
20
-64.275
40
2
50
0
51
90
0
ARC
8
0
10
363.4951
20
-60.275
40
2
50
179.4270613
51
270
0
ARC
8
0
10
359.5049
20
-59.275
40
2
50
359.4270613
51
90
0
ARC
8
0
10
344.4893368
20
-55.275
40
2
50
179.59075
51
270
0
ARC
8
0
10
340.5106632
20
-52.275
40
2
50
359.59075
51
90
0
ARC
8
0
10
321.4951
20
-48.275
40
2
50
179.4270613
51
270
0
ARC
8
0
10
317.5049
20
-47.275
40
2
50
359.4270613
51
90
0
ARC
8
0
10
302.4917025
20
-47.275
40
2
50
90
51
180.4765001
0
ARC
8
0
10
298.5081975
20
-49.275
40
2
50
270
51
0.4765001
0
ARC
8
0
10
283.5086111
20
-53.275
40
2
50
90
51
180.954844
0
ARC
8
0
10
264.475
20
-56.275
40
2
50
90
51
180
0
ARC
8
0
10
264.475
20
-151.525
40
2
50
180
51
270
0
ARC
8
0
10
301.072026
20
-148.525
40
2
50
270
51
341.9958374
0
ARC
8
0
10
305.927974
20
-146.525
40
2
50
90
51
161.9958374
0
ARC
8
0
10
321.5049
20
-146.525
40
2
50
359.4270613
51
90
0
ARC
8
0
10
325.4951
20
-147.525
40
2
50
179.4270613
51
270
0
ARC
8
0
10
336.5106632
20
-151.525
40
2
50
359.59075
51
90
0
ARC
8
0
10
340.4893368
20
-154.525
40
2
50
179.59075
51
270
0
ARC
8
0
10
355.5049
20
-158.525
40
2
50
359.4270613
51
90
0
ARC
8
0
10
359.4951
20
-159.525
40
2
50
179.4270613
51
270
0
ARC
8
0
10
397.525
20
-159.525
40
2
50
270
51
0
0
ENDSEC
0
EOF