0
SECTION
2
HEADER
9
$INSUNITS
70
4
0
ENDSEC
0
SECTION
2
TABLES
0
TABLE
2
LTYPE
0
LTYPE
72
65
70
64
2
CONTINUOUS
3
______
73
0
40
0
0
ENDTAB
0
TABLE
2
LAYER
0
ENDTAB
0
ENDSEC
0
SECTION
2
ENTITIES
0
LINE
8
0
10
92.5
20
-157.5
11
107.5
21
-157.5
0
LINE
8
0
10
107.5
20
-157.5
11
107.5
21
-142.5
0
LINE
8
0
10
107.5
20
-142.5
11
92.5
21
-142.5
0
LINE
8
0
10
92.5
20
-142.5
11
92.5
21
-157.5
0
LINE
8
0
10
92.5
20
-138.45
11
107.5
21
-138.45
0
LINE
8
0
10
107.5
20
-138.45
11
107.5
21
-123.45
0
LINE
8
0
10
107.5
20
-123.45
11
92.5
21
-123.45
0
LINE
8
0
10
92.5
20
-123.45
11
92.5
21
-138.45
0
LINE
8
0
10
92.5
20
-119.4
11
107.5
21
-119.4
0
LINE
8
0
10
107.5
20
-119.4
11
107.5
21
-104.4
0
LINE
8
0
10
107.5
20
-104.4
11
92.5
21
-104.4
0
LINE
8
0
10
92.5
20
-104.4
11
92.5
21
-119.4
0
LINE
8
0
10
92.5
20
-100.35
11
107.5
21
-100.35
0
LINE
8
0
10
107.5
20
-100.35
11
107.5
21
-85.35
0
LINE
8
0
10
107.5
20
-85.35
11
92.5
21
-85.35
0
LINE
8
0
10
92.5
20
-85.35
11
92.5
21
-100.35
0
LINE
8
0
10
92.5
20
-81.3
11
107.5
21
-81.3
0
LINE
8
0
10
107.5
20
-81.3
11
107.5
21
-66.3
0
LINE
8
0
10
107.5
20
-66.3
11
92.5
21
-66.3
0
LINE
8
0
10
92.5
20
-66.3
11
92.5
21
-81.3
0
LINE
8
0
10
111.5
20
-157.5
11
126.5
21
-157.5
0
LINE
8
0
10
126.5
20
-157.5
11
126.5
21
-142.5
0
LINE
8
0
10
126.5
20
-142.5
11
111.5
21
-142.5
0
LINE
8
0
10
111.5
20
-142.5
11
111.5
21
-157.5
0
LINE
8
0
10
111.5
20
-138.45
11
126.5
21
-138.45
0
LINE
8
0
10
126.5
20
-138.45
11
126.5
21
-123.45
0
LINE
8
0
10
126.5
20
-123.45
11
111.5
21
-123.45
0
LINE
8
0
10
111.5
20
-123.45
11
111.5
21
-138.45
0
LINE
8
0
10
111.5
20
-119.4
11
126.5
21
-119.4
0
LINE
8
0
10
126.5
20
-119.4
11
126.5
21
-104.4
0
LINE
8
0
10
126.5
20
-104.4
11
111.5
21
-104.4
0
LINE
8
0
10
111.5
20
-104.4
11
111.5
21
-119.4
0
LINE
8
0
10
111.5
20
-100.35
11
126.5
21
-100.35
0
LINE
8
0
10
126.5
20
-100.35
11
126.5
21
-85.35
0
LINE
8
0
10
126.5
20
-85.35
11
111.5
21
-85.35
0
LINE
8
0
10
111.5
20
-85.35
11
111.5
21
-100.35
0
LINE
8
0
10
111.5
20
-81.3
11
126.5
21
-81.3
0
LINE
8
0
10
126.5
20
-81.3
11
126.5
21
-66.3
0
LINE
8
0
10
126.5
20
-66.3
11
111.5
21
-66.3
0
LINE
8
0
10
111.5
20
-66.3
11
111.5
21
-81.3
0
LINE
8
0
10
130.5
20
-152.5
11
145.5
21
-152.5
0
LINE
8
0
10
145.5
20
-152.5
11
145.5
21
-137.5
0
LINE
8
0
10
145.5
20
-137.5
11
130.5
21
-137.5
0
LINE
8
0
10
130.5
20
-137.5
11
130.5
21
-152.5
0
LINE
8
0
10
130.5
20
-133.45
11
145.5
21
-133.45
0
LINE
8
0
10
145.5
20
-133.45
11
145.5
21
-118.45
0
LINE
8
0
10
145.5
20
-118.45
11
130.5
21
-118.45
0
LINE
8
0
10
130.5
20
-118.45
11
130.5
21
-133.45
0
LINE
8
0
10
130.5
20
-114.4
11
145.5
21
-114.4
0
LINE
8
0
10
145.5
20
-114.4
11
145.5
21
-99.4
0
LINE
8
0
10
145.5
20
-99.4
11
130.5
21
-99.4
0
LINE
8
0
10
130.5
20
-99.4
11
130.5
21
-114.4
0
LINE
8
0
10
130.5
20
-95.35
11
145.5
21
-95.35
0
LINE
8
0
10
145.5
20
-95.35
11
145.5
21
-80.35
0
LINE
8
0
10
145.5
20
-80.35
11
130.5
21
-80.35
0
LINE
8
0
10
130.5
20
-80.35
11
130.5
21
-95.35
0
LINE
8
0
10
130.5
20
-76.3
11
145.5
21
-76.3
0
LINE
8
0
10
145.5
20
-76.3
11
145.5
21
-61.3
0
LINE
8
0
10
145.5
20
-61.3
11
130.5
21
-61.3
0
LINE
8
0
10
130.5
20
-61.3
11
130.5
21
-76.3
0
LINE
8
0
10
149.5
20
-145.5
11
164.5
21
-145.5
0
LINE
8
0
10
164.5
20
-145.5
11
164.5
21
-130.5
0
LINE
8
0
10
164.5
20
-130.5
11
149.5
21
-130.5
0
LINE
8
0
10
149.5
20
-130.5
11
149.5
21
-145.5
0
LINE
8
0
10
149.5
20
-126.45
11
164.5
21
-126.45
0
LINE
8
0
10
164.5
20
-126.45
11
164.5
21
-111.45
0
LINE
8
0
10
164.5
20
-111.45
11
149.5
21
-111.45
0
LINE
8
0
10
149.5
20
-111.45
11
149.5
21
-126.45
0
LINE
8
0
10
149.5
20
-107.4
11
164.5
21
-107.4
0
LINE
8
0
10
164.5
20
-107.4
11
164.5
21
-92.4
0
LINE
8
0
10
164.5
20
-92.4
11
149.5
21
-92.4
0
LINE
8
0
10
149.5
20
-92.4
11
149.5
21
-107.4
0
LINE
8
0
10
149.5
20
-88.35
11
164.5
21
-88.35
0
LINE
8
0
10
164.5
20
-88.35
11
164.5
21
-73.35
0
LINE
8
0
10
164.5
20
-73.35
11
149.5
21
-73.35
0
LINE
8
0
10
149.5
20
-73.35
11
149.5
21
-88.35
0
LINE
8
0
10
149.5
20
-69.3
11
164.5
21
-69.3
0
LINE
8
0
10
164.5
20
-69.3
11
164.5
21
-54.3
0
LINE
8
0
10
164.5
20
-54.3
11
149.5
21
-54.3
0
LINE
8
0
10
149.5
20
-54.3
11
149.5
21
-69.3
0
LINE
8
0
10
168.5
20
-140.5
11
183.5
21
-140.5
0
LINE
8
0
10
183.5
20
-140.5
11
183.5
21
-125.5
0
LINE
8
0
10
183.5
20
-125.5
11
168.5
21
-125.5
0
LINE
8
0
10
168.5
20
-125.5
11
168.5
21
-140.5
0
LINE
8
0
10
168.5
20
-121.45
11
183.5
21
-121.45
0
LINE
8
0
10
183.5
20
-121.45
11
183.5
21
-106.45
0
LINE
8
0
10
183.5
20
-106.45
11
168.5
21
-106.45
0
LINE
8
0
10
168.5
20
-106.45
11
168.5
21
-121.45
0
LINE
8
0
10
168.5
20
-102.4
11
183.5
21
-102.4
0
LINE
8
0
10
183.5
20
-102.4
11
183.5
21
-87.4
0
LINE
8
0
10
183.5
20
-87.4
11
168.5
21
-87.4
0
LINE
8
0
10
168.5
20
-87.4
11
168.5
21
-102.4
0
LINE
8
0
10
168.5
20
-83.35
11
183.5
21
-83.35
0
LINE
8
0
10
183.5
20
-83.35
11
183.5
21
-68.35
0
LINE
8
0
10
183.5
20
-68.35
11
168.5
21
-68.35
0
LINE
8
0
10
168.5
20
-68.35
11
168.5
21
-83.35
0
LINE
8
0
10
168.5
20
-64.3
11
183.5
21
-64.3
0
LINE
8
0
10
183.5
20
-64.3
11
183.5
21
-49.3
0
LINE
8
0
10
183.5
20
-49.3
11
168.5
21
-49.3
0
LINE
8
0
10
168.5
20
-49.3
11
168.5
21
-64.3
0
LINE
8
0
10
187.5
20
-146.5
11
202.5
21
-146.5
0
LINE
8
0
10
202.5
20
-146.5
11
202.5
21
-131.5
0
LINE
8
0
10
202.5
20
-131.5
11
187.5
21
-131.5
0
LINE
8
0
10
187.5
20
-131.5
11
187.5
21
-146.5
0
LINE
8
0
10
187.5
20
-127.45
11
202.5
21
-127.45
0
LINE
8
0
10
202.5
20
-127.45
11
202.5
21
-112.45
0
LINE
8
0
10
202.5
20
-112.45
11
187.5
21
-112.45
0
LINE
8
0
10
187.5
20
-112.45
11
187.5
21
-127.45
0
LINE
8
0
10
187.5
20
-108.4
11
202.5
21
-108.4
0
LINE
8
0
10
202.5
20
-108.4
11
202.5
21
-93.4
0
LINE
8
0
10
202.5
20
-93.4
11
187.5
21
-93.4
0
LINE
8
0
10
187.5
20
-93.4
11
187.5
21
-108.4
0
LINE
8
0
10
187.5
20
-89.35
11
202.5
21
-89.35
0
LINE
8
0
10
202.5
20
-89.35
11
202.5
21
-74.35
0
LINE
8
0
10
202.5
20
-74.35
11
187.5
21
-74.35
0
LINE
8
0
10
187.5
20
-74.35
11
187.5
21
-89.35
0
LINE
8
0
10
187.5
20
-70.3
11
202.5
21
-70.3
0
LINE
8
0
10
202.5
20
-70.3
11
202.5
21
-55.3
0
LINE
8
0
10
202.5
20
-55.3
11
187.5
21
-55.3
0
LINE
8
0
10
187.5
20
-55.3
11
187.5
21
-70.3
0
LINE
8
0
10
206.5
20
-149.5
11
221.5
21
-149.5
0
LINE
8
0
10
221.5
20
-149.5
11
221.5
21
-134.5
0
LINE
8
0
10
221.5
20
-134.5
11
206.5
21
-134.5
0
LINE
8
0
10
206.5
20
-134.5
11
206.5
21
-149.5
0
LINE
8
0
10
206.5
20
-130.45
11
221.5
21
-130.45
0
LINE
8
0
10
221.5
20
-130.45
11
221.5
21
-115.45
0
LINE
8
0
10
221.5
20
-115.45
11
206.5
21
-115.45
0
LINE
8
0
10
206.5
20
-115.45
11
206.5
21
-130.45
0
LINE
8
0
10
206.5
20
-111.4
11
221.5
21
-111.4
0
LINE
8
0
10
221.5
20
-111.4
11
221.5
21
-96.4
0
LINE
8
0
10
221.5
20
-96.4
11
206.5
21
-96.4
0
LINE
8
0
10
206.5
20
-96.4
11
206.5
21
-111.4
0
LINE
8
0
10
206.5
20
-92.35
11
221.5
21
-92.35
0
LINE
8
0
10
221.5
20
-92.35
11
221.5
21
-77.35
0
LINE
8
0
10
221.5
20
-77.35
11
206.5
21
-77.35
0
LINE
8
0
10
206.5
20
-77.35
11
206.5
21
-92.35
0
LINE
8
0
10
206.5
20
-73.3
11
221.5
21
-73.3
0
LINE
8
0
10
221.5
20
-73.3
11
221.5
21
-58.3
0
LINE
8
0
10
221.5
20
-58.3
11
206.5
21
-58.3
0
LINE
8
0
10
206.5
20
-58.3
11
206.5
21
-73.3
0
LINE
8
0
10
380.5
20
-157.5
11
395.5
21
-157.5
0
LINE
8
0
10
395.5
20
-157.5
11
395.5
21
-142.5
0
LINE
8
0
10
395.5
20
-142.5
11
380.5
21
-142.5
0
LINE
8
0
10
380.5
20
-142.5
11
380.5
21
-157.5
0
LINE
8
0
10
380.5
20
-138.45
11
395.5
21
-138.45
0
LINE
8
0
10
395.5
20
-138.45
11
395.5
21
-123.45
0
LINE
8
0
10
395.5
20
-123.45
11
380.5
21
-123.45
0
LINE
8
0
10
380.5
20
-123.45
11
380.5
21
-138.45
0
LINE
8
0
10
380.5
20
-119.4
11
395.5
21
-119.4
0
LINE
8
0
10
395.5
20
-119.4
11
395.5
21
-104.4
0
LINE
8
0
10
395.5
20
-104.4
11
380.5
21
-104.4
0
LINE
8
0
10
380.5
20
-104.4
11
380.5
21
-119.4
0
LINE
8
0
10
380.5
20
-100.35
11
395.5
21
-100.35
0
LINE
8
0
10
395.5
20
-100.35
11
395.5
21
-85.35
0
LINE
8
0
10
395.5
20
-85.35
11
380.5
21
-85.35
0
LINE
8
0
10
380.5
20
-85.35
11
380.5
21
-100.35
0
LINE
8
0
10
380.5
20
-81.3
11
395.5
21
-81.3
0
LINE
8
0
10
395.5
20
-81.3
11
395.5
21
-66.3
0
LINE
8
0
10
395.5
20
-66.3
11
380.5
21
-66.3
0
LINE
8
0
10
380.5
20
-66.3
11
380.5
21
-81.3
0
LINE
8
0
10
361.5
20
-157.5
11
376.5
21
-157.5
0
LINE
8
0
10
376.5
20
-157.5
11
376.5
21
-142.5
0
LINE
8
0
10
376.5
20
-142.5
11
361.5
21
-142.5
0
LINE
8
0
10
361.5
20
-142.5
11
361.5
21
-157.5
0
LINE
8
0
10
361.5
20
-138.45
11
376.5
21
-138.45
0
LINE
8
0
10
376.5
20
-138.45
11
376.5
21
-123.45
0
LINE
8
0
10
376.5
20
-123.45
11
361.5
21
-123.45
0
LINE
8
0
10
361.5
20
-123.45
11
361.5
21
-138.45
0
LINE
8
0
10
361.5
20
-119.4
11
376.5
21
-119.4
0
LINE
8
0
10
376.5
20
-119.4
11
376.5
21
-104.4
0
LINE
8
0
10
376.5
20
-104.4
11
361.5
21
-104.4
0
LINE
8
0
10
361.5
20
-104.4
11
361.5
21
-119.4
0
LINE
8
0
10
361.5
20
-100.35
11
376.5
21
-100.35
0
LINE
8
0
10
376.5
20
-100.35
11
376.5
21
-85.35
0
LINE
8
0
10
376.5
20
-85.35
11
361.5
21
-85.35
0
LINE
8
0
10
361.5
20
-85.35
11
361.5
21
-100.35
0
LINE
8
0
10
361.5
20
-81.3
11
376.5
21
-81.3
0
LINE
8
0
10
376.5
20
-81.3
11
376.5
21
-66.3
0
LINE
8
0
10
376.5
20
-66.3
11
361.5
21
-66.3
0
LINE
8
0
10
361.5
20
-66.3
11
361.5
21
-81.3
0
LINE
8
0
10
342.5
20
-152.5
11
357.5
21
-152.5
0
LINE
8
0
10
357.5
20
-152.5
11
357.5
21
-137.5
0
LINE
8
0
10
357.5
20
-137.5
11
342.5
21
-137.5
0
LINE
8
0
10
342.5
20
-137.5
11
342.5
21
-152.5
0
LINE
8
0
10
342.5
20
-133.45
11
357.5
21
-133.45
0
LINE
8
0
10
357.5
20
-133.45
11
357.5
21
-118.45
0
LINE
8
0
10
357.5
20
-118.45
11
342.5
21
-118.45
0
LINE
8
0
10
342.5
20
-118.45
11
342.5
21
-133.45
0
LINE
8
0
10
342.5
20
-114.4
11
357.5
21
-114.4
0
LINE
8
0
10
357.5
20
-114.4
11
357.5
21
-99.4
0
LINE
8
0
10
357.5
20
-99.4
11
342.5
21
-99.4
0
LINE
8
0
10
342.5
20
-99.4
11
342.5
21
-114.4
0
LINE
8
0
10
342.5
20
-95.35
11
357.5
21
-95.35
0
LINE
8
0
10
357.5
20
-95.35
11
357.5
21
-80.35
0
LINE
8
0
10
357.5
20
-80.35
11
342.5
21
-80.35
0
LINE
8
0
10
342.5
20
-80.35
11
342.5
21
-95.35
0
LINE
8
0
10
342.5
20
-76.3
11
357.5
21
-76.3
0
LINE
8
0
10
357.5
20
-76.3
11
357.5
21
-61.3
0
LINE
8
0
10
357.5
20
-61.3
11
342.5
21
-61.3
0
LINE
8
0
10
342.5
20
-61.3
11
342.5
21
-76.3
0
LINE
8
0
10
323.5
20
-145.5
11
338.5
21
-145.5
0
LINE
8
0
10
338.5
20
-145.5
11
338.5
21
-130.5
0
LINE
8
0
10
338.5
20
-130.5
11
323.5
21
-130.5
0
LINE
8
0
10
323.5
20
-130.5
11
323.5
21
-145.5
0
LINE
8
0
10
323.5
20
-126.45
11
338.5
21
-126.45
0
LINE
8
0
10
338.5
20
-126.45
11
338.5
21
-111.45
0
LINE
8
0
10
338.5
20
-111.45
11
323.5
21
-111.45
0
LINE
8
0
10
323.5
20
-111.45
11
323.5
21
-126.45
0
LINE
8
0
10
323.5
20
-107.4
11
338.5
21
-107.4
0
LINE
8
0
10
338.5
20
-107.4
11
338.5
21
-92.4
0
LINE
8
0
10
338.5
20
-92.4
11
323.5
21
-92.4
0
LINE
8
0
10
323.5
20
-92.4
11
323.5
21
-107.4
0
LINE
8
0
10
323.5
20
-88.35
11
338.5
21
-88.35
0
LINE
8
0
10
338.5
20
-88.35
11
338.5
21
-73.35
0
LINE
8
0
10
338.5
20
-73.35
11
323.5
21
-73.35
0
LINE
8
0
10
323.5
20
-73.35
11
323.5
21
-88.35
0
LINE
8
0
10
323.5
20
-69.3
11
338.5
21
-69.3
0
LINE
8
0
10
338.5
20
-69.3
11
338.5
21
-54.3
0
LINE
8
0
10
338.5
20
-54.3
11
323.5
21
-54.3
0
LINE
8
0
10
323.5
20
-54.3
11
323.5
21
-69.3
0
LINE
8
0
10
304.5
20
-140.5
11
319.5
21
-140.5
0
LINE
8
0
10
319.5
20
-140.5
11
319.5
21
-125.5
0
LINE
8
0
10
319.5
20
-125.5
11
304.5
21
-125.5
0
LINE
8
0
10
304.5
20
-125.5
11
304.5
21
-140.5
0
LINE
8
0
10
304.5
20
-121.45
11
319.5
21
-121.45
0
LINE
8
0
10
319.5
20
-121.45
11
319.5
21
-106.45
0
LINE
8
0
10
319.5
20
-106.45
11
304.5
21
-106.45
0
LINE
8
0
10
304.5
20
-106.45
11
304.5
21
-121.45
0
LINE
8
0
10
304.5
20
-102.4
11
319.5
21
-102.4
0
LINE
8
0
10
319.5
20
-102.4
11
319.5
21
-87.4
0
LINE
8
0
10
319.5
20
-87.4
11
304.5
21
-87.4
0
LINE
8
0
10
304.5
20
-87.4
11
304.5
21
-102.4
0
LINE
8
0
10
304.5
20
-83.35
11
319.5
21
-83.35
0
LINE
8
0
10
319.5
20
-83.35
11
319.5
21
-68.35
0
LINE
8
0
10
319.5
20
-68.35
11
304.5
21
-68.35
0
LINE
8
0
10
304.5
20
-68.35
11
304.5
21
-83.35
0
LINE
8
0
10
304.5
20
-64.3
11
319.5
21
-64.3
0
LINE
8
0
10
319.5
20
-64.3
11
319.5
21
-49.3
0
LINE
8
0
10
319.5
20
-49.3
11
304.5
21
-49.3
0
LINE
8
0
10
304.5
20
-49.3
11
304.5
21
-64.3
0
LINE
8
0
10
285.5
20
-146.5
11
300.5
21
-146.5
0
LINE
8
0
10
300.5
20
-146.5
11
300.5
21
-131.5
0
LINE
8
0
10
300.5
20
-131.5
11
285.5
21
-131.5
0
LINE
8
0
10
285.5
20
-131.5
11
285.5
21
-146.5
0
LINE
8
0
10
285.5
20
-127.45
11
300.5
21
-127.45
0
LINE
8
0
10
300.5
20
-127.45
11
300.5
21
-112.45
0
LINE
8
0
10
300.5
20
-112.45
11
285.5
21
-112.45
0
LINE
8
0
10
285.5
20
-112.45
11
285.5
21
-127.45
0
LINE
8
0
10
285.5
20
-108.4
11
300.5
21
-108.4
0
LINE
8
0
10
300.5
20
-108.4
11
300.5
21
-93.4
0
LINE
8
0
10
300.5
20
-93.4
11
285.5
21
-93.4
0
LINE
8
0
10
285.5
20
-93.4
11
285.5
21
-108.4
0
LINE
8
0
10
285.5
20
-89.35
11
300.5
21
-89.35
0
LINE
8
0
10
300.5
20
-89.35
11
300.5
21
-74.35
0
LINE
8
0
10
300.5
20
-74.35
11
285.5
21
-74.35
0
LINE
8
0
10
285.5
20
-74.35
11
285.5
21
-89.35
0
LINE
8
0
10
285.5
20
-70.3
11
300.5
21
-70.3
0
LINE
8
0
10
300.5
20
-70.3
11
300.5
21
-55.3
0
LINE
8
0
10
300.5
20
-55.3
11
285.5
21
-55.3
0
LINE
8
0
10
285.5
20
-55.3
11
285.5
21
-70.3
0
LINE
8
0
10
266.5
20
-149.5
11
281.5
21
-149.5
0
LINE
8
0
10
281.5
20
-149.5
11
281.5
21
-134.5
0
LINE
8
0
10
281.5
20
-134.5
11
266.5
21
-134.5
0
LINE
8
0
10
266.5
20
-134.5
11
266.5
21
-149.5
0
LINE
8
0
10
266.5
20
-130.45
11
281.5
21
-130.45
0
LINE
8
0
10
281.5
20
-130.45
11
281.5
21
-115.45
0
LINE
8
0
10
281.5
20
-115.45
11
266.5
21
-115.45
0
LINE
8
0
10
266.5
20
-115.45
11
266.5
21
-130.45
0
LINE
8
0
10
266.5
20
-111.4
11
281.5
21
-111.4
0
LINE
8
0
10
281.5
20
-111.4
11
281.5
21
-96.4
0
LINE
8
0
10
281.5
20
-96.4
11
266.5
21
-96.4
0
LINE
8
0
10
266.5
20
-96.4
11
266.5
21
-111.4
0
LINE
8
0
10
266.5
20
-92.35
11
281.5
21
-92.35
0
LINE
8
0
10
281.5
20
-92.35
11
281.5
21
-77.35
0
LINE
8
0
10
281.5
20
-77.35
11
266.5
21
-77.35
0
LINE
8
0
10
266.5
20
-77.35
11
266.5
21
-92.35
0
LINE
8
0
10
266.5
20
-73.3
11
281.5
21
-73.3
0
LINE
8
0
10
281.5
20
-73.3
11
281.5
21
-58.3
0
LINE
8
0
10
281.5
20
-58.3
11
266.5
21
-58.3
0
LINE
8
0
10
266.5
20
-58.3
11
266.5
21
-73.3
0
ENDSEC
0
EOF