0
SECTION
2
HEADER
9
$INSUNITS
70
4
0
ENDSEC
0
SECTION
2
TABLES
0
TABLE
2
LTYPE
0
LTYPE
72
65
70
64
2
CONTINUOUS
3
______
73
0
40
0
0
ENDTAB
0
TABLE
2
LAYER
0
ENDTAB
0
ENDSEC
0
SECTION
2
ENTITIES
0
LINE
8
0
10
86.975
20
-163.025
11
86.975
21
-60.775
0
LINE
8
0
10
86.975
20
-60.775
11
125.025
21
-60.775
0
LINE
8
0
10
125.025
20
-60.775
11
124.975
21
-55.775
0
LINE
8
0
10
124.975
20
-55.775
11
144.025
21
-55.775
0
LINE
8
0
10
144.025
20
-55.775
11
143.975
21
-48.775
0
LINE
8
0
10
143.975
20
-48.775
11
170.025
21
-48.775
0
LINE
8
0
10
170.025
20
-48.775
11
169.975
21
-43.775
0
LINE
8
0
10
169.975
20
-43.775
11
189.025
21
-43.775
0
LINE
8
0
10
189.025
20
-43.775
11
188.9751
21
-49.775
0
LINE
8
0
10
188.9751
20
-49.775
11
208.025
21
-49.775
0
LINE
8
0
10
208.025
20
-49.775
11
207.975
21
-52.775
0
LINE
8
0
10
207.975
20
-52.775
11
227.025
21
-52.775
0
LINE
8
0
10
227.025
20
-52.775
11
227.025
21
-155.025
0
LINE
8
0
10
227.025
20
-155.025
11
202.975
21
-155.025
0
LINE
8
0
10
202.975
20
-155.025
11
208.025
21
-152.025
0
LINE
8
0
10
208.025
20
-152.025
11
183.975
21
-152.025
0
LINE
8
0
10
183.975
20
-152.025
11
182.025
21
-146.025
0
LINE
8
0
10
182.025
20
-146.025
11
162.975
21
-146.025
0
LINE
8
0
10
162.975
20
-146.025
11
163.025
21
-151.025
0
LINE
8
0
10
163.025
20
-151.025
11
150.975
21
-151.025
0
LINE
8
0
10
150.975
20
-151.025
11
151.025
21
-158.025
0
LINE
8
0
10
151.025
20
-158.025
11
131.975
21
-158.025
0
LINE
8
0
10
131.975
20
-158.025
11
132.025
21
-163.025
0
LINE
8
0
10
86.975
20
-163.025
11
132.025
21
-163.025
0
LINE
8
0
10
93
20
-157
11
107
21
-157
0
LINE
8
0
10
107
20
-157
11
107
21
-143
0
LINE
8
0
10
107
20
-143
11
93
21
-143
0
LINE
8
0
10
93
20
-143
11
93
21
-157
0
LINE
8
0
10
93
20
-137.95
11
107
21
-137.95
0
LINE
8
0
10
107
20
-137.95
11
107
21
-123.95
0
LINE
8
0
10
107
20
-123.95
11
93
21
-123.95
0
LINE
8
0
10
93
20
-123.95
11
93
21
-137.95
0
LINE
8
0
10
93
20
-118.9
11
107
21
-118.9
0
LINE
8
0
10
107
20
-118.9
11
107
21
-104.9
0
LINE
8
0
10
107
20
-104.9
11
93
21
-104.9
0
LINE
8
0
10
93
20
-104.9
11
93
21
-118.9
0
LINE
8
0
10
93
20
-99.85
11
107
21
-99.85
0
LINE
8
0
10
107
20
-99.85
11
107
21
-85.85
0
LINE
8
0
10
107
20
-85.85
11
93
21
-85.85
0
LINE
8
0
10
93
20
-85.85
11
93
21
-99.85
0
LINE
8
0
10
93
20
-80.8
11
107
21
-80.8
0
LINE
8
0
10
107
20
-80.8
11
107
21
-66.8
0
LINE
8
0
10
107
20
-66.8
11
93
21
-66.8
0
LINE
8
0
10
93
20
-66.8
11
93
21
-80.8
0
LINE
8
0
10
112
20
-157
11
126
21
-157
0
LINE
8
0
10
126
20
-157
11
126
21
-143
0
LINE
8
0
10
126
20
-143
11
112
21
-143
0
LINE
8
0
10
112
20
-143
11
112
21
-157
0
LINE
8
0
10
112
20
-137.95
11
126
21
-137.95
0
LINE
8
0
10
126
20
-137.95
11
126
21
-123.95
0
LINE
8
0
10
126
20
-123.95
11
112
21
-123.95
0
LINE
8
0
10
112
20
-123.95
11
112
21
-137.95
0
LINE
8
0
10
112
20
-118.9
11
126
21
-118.9
0
LINE
8
0
10
126
20
-118.9
11
126
21
-104.9
0
LINE
8
0
10
126
20
-104.9
11
112
21
-104.9
0
LINE
8
0
10
112
20
-104.9
11
112
21
-118.9
0
LINE
8
0
10
112
20
-99.85
11
126
21
-99.85
0
LINE
8
0
10
126
20
-99.85
11
126
21
-85.85
0
LINE
8
0
10
126
20
-85.85
11
112
21
-85.85
0
LINE
8
0
10
112
20
-85.85
11
112
21
-99.85
0
LINE
8
0
10
112
20
-80.8
11
126
21
-80.8
0
LINE
8
0
10
126
20
-80.8
11
126
21
-66.8
0
LINE
8
0
10
126
20
-66.8
11
112
21
-66.8
0
LINE
8
0
10
112
20
-66.8
11
112
21
-80.8
0
LINE
8
0
10
131
20
-152
11
145
21
-152
0
LINE
8
0
10
145
20
-152
11
145
21
-138
0
LINE
8
0
10
145
20
-138
11
131
21
-138
0
LINE
8
0
10
131
20
-138
11
131
21
-152
0
LINE
8
0
10
131
20
-132.95
11
145
21
-132.95
0
LINE
8
0
10
145
20
-132.95
11
145
21
-118.95
0
LINE
8
0
10
145
20
-118.95
11
131
21
-118.95
0
LINE
8
0
10
131
20
-118.95
11
131
21
-132.95
0
LINE
8
0
10
131
20
-113.9
11
145
21
-113.9
0
LINE
8
0
10
145
20
-113.9
11
145
21
-99.9
0
LINE
8
0
10
145
20
-99.9
11
131
21
-99.9
0
LINE
8
0
10
131
20
-99.9
11
131
21
-113.9
0
LINE
8
0
10
131
20
-94.85
11
145
21
-94.85
0
LINE
8
0
10
145
20
-94.85
11
145
21
-80.85
0
LINE
8
0
10
145
20
-80.85
11
131
21
-80.85
0
LINE
8
0
10
131
20
-80.85
11
131
21
-94.85
0
LINE
8
0
10
131
20
-75.8
11
145
21
-75.8
0
LINE
8
0
10
145
20
-75.8
11
145
21
-61.8
0
LINE
8
0
10
145
20
-61.8
11
131
21
-61.8
0
LINE
8
0
10
131
20
-61.8
11
131
21
-75.8
0
LINE
8
0
10
150
20
-145
11
164
21
-145
0
LINE
8
0
10
164
20
-145
11
164
21
-131
0
LINE
8
0
10
164
20
-131
11
150
21
-131
0
LINE
8
0
10
150
20
-131
11
150
21
-145
0
LINE
8
0
10
150
20
-125.95
11
164
21
-125.95
0
LINE
8
0
10
164
20
-125.95
11
164
21
-111.95
0
LINE
8
0
10
164
20
-111.95
11
150
21
-111.95
0
LINE
8
0
10
150
20
-111.95
11
150
21
-125.95
0
LINE
8
0
10
150
20
-106.9
11
164
21
-106.9
0
LINE
8
0
10
164
20
-106.9
11
164
21
-92.9
0
LINE
8
0
10
164
20
-92.9
11
150
21
-92.9
0
LINE
8
0
10
150
20
-92.9
11
150
21
-106.9
0
LINE
8
0
10
150
20
-87.85
11
164
21
-87.85
0
LINE
8
0
10
164
20
-87.85
11
164
21
-73.85
0
LINE
8
0
10
164
20
-73.85
11
150
21
-73.85
0
LINE
8
0
10
150
20
-73.85
11
150
21
-87.85
0
LINE
8
0
10
150
20
-68.8
11
164
21
-68.8
0
LINE
8
0
10
164
20
-68.8
11
164
21
-54.8
0
LINE
8
0
10
164
20
-54.8
11
150
21
-54.8
0
LINE
8
0
10
150
20
-54.8
11
150
21
-68.8
0
LINE
8
0
10
169
20
-140
11
183
21
-140
0
LINE
8
0
10
183
20
-140
11
183
21
-126
0
LINE
8
0
10
183
20
-126
11
169
21
-126
0
LINE
8
0
10
169
20
-126
11
169
21
-140
0
LINE
8
0
10
169
20
-120.95
11
183
21
-120.95
0
LINE
8
0
10
183
20
-120.95
11
183
21
-106.95
0
LINE
8
0
10
183
20
-106.95
11
169
21
-106.95
0
LINE
8
0
10
169
20
-106.95
11
169
21
-120.95
0
LINE
8
0
10
169
20
-101.9
11
183
21
-101.9
0
LINE
8
0
10
183
20
-101.9
11
183
21
-87.9
0
LINE
8
0
10
183
20
-87.9
11
169
21
-87.9
0
LINE
8
0
10
169
20
-87.9
11
169
21
-101.9
0
LINE
8
0
10
169
20
-82.85
11
183
21
-82.85
0
LINE
8
0
10
183
20
-82.85
11
183
21
-68.85
0
LINE
8
0
10
183
20
-68.85
11
169
21
-68.85
0
LINE
8
0
10
169
20
-68.85
11
169
21
-82.85
0
LINE
8
0
10
169
20
-63.8
11
183
21
-63.8
0
LINE
8
0
10
183
20
-63.8
11
183
21
-49.8
0
LINE
8
0
10
183
20
-49.8
11
169
21
-49.8
0
LINE
8
0
10
169
20
-49.8
11
169
21
-63.8
0
LINE
8
0
10
188
20
-146
11
202
21
-146
0
LINE
8
0
10
202
20
-146
11
202
21
-132
0
LINE
8
0
10
202
20
-132
11
188
21
-132
0
LINE
8
0
10
188
20
-132
11
188
21
-146
0
LINE
8
0
10
188
20
-126.95
11
202
21
-126.95
0
LINE
8
0
10
202
20
-126.95
11
202
21
-112.95
0
LINE
8
0
10
202
20
-112.95
11
188
21
-112.95
0
LINE
8
0
10
188
20
-112.95
11
188
21
-126.95
0
LINE
8
0
10
188
20
-107.9
11
202
21
-107.9
0
LINE
8
0
10
202
20
-107.9
11
202
21
-93.9
0
LINE
8
0
10
202
20
-93.9
11
188
21
-93.9
0
LINE
8
0
10
188
20
-93.9
11
188
21
-107.9
0
LINE
8
0
10
188
20
-88.85
11
202
21
-88.85
0
LINE
8
0
10
202
20
-88.85
11
202
21
-74.85
0
LINE
8
0
10
202
20
-74.85
11
188
21
-74.85
0
LINE
8
0
10
188
20
-74.85
11
188
21
-88.85
0
LINE
8
0
10
188
20
-69.8
11
202
21
-69.8
0
LINE
8
0
10
202
20
-69.8
11
202
21
-55.8
0
LINE
8
0
10
202
20
-55.8
11
188
21
-55.8
0
LINE
8
0
10
188
20
-55.8
11
188
21
-69.8
0
LINE
8
0
10
207
20
-149
11
221
21
-149
0
LINE
8
0
10
221
20
-149
11
221
21
-135
0
LINE
8
0
10
221
20
-135
11
207
21
-135
0
LINE
8
0
10
207
20
-135
11
207
21
-149
0
LINE
8
0
10
207
20
-129.95
11
221
21
-129.95
0
LINE
8
0
10
221
20
-129.95
11
221
21
-115.95
0
LINE
8
0
10
221
20
-115.95
11
207
21
-115.95
0
LINE
8
0
10
207
20
-115.95
11
207
21
-129.95
0
LINE
8
0
10
207
20
-110.9
11
221
21
-110.9
0
LINE
8
0
10
221
20
-110.9
11
221
21
-96.9
0
LINE
8
0
10
221
20
-96.9
11
207
21
-96.9
0
LINE
8
0
10
207
20
-96.9
11
207
21
-110.9
0
LINE
8
0
10
207
20
-91.85
11
221
21
-91.85
0
LINE
8
0
10
221
20
-91.85
11
221
21
-77.85
0
LINE
8
0
10
221
20
-77.85
11
207
21
-77.85
0
LINE
8
0
10
207
20
-77.85
11
207
21
-91.85
0
LINE
8
0
10
207
20
-72.8
11
221
21
-72.8
0
LINE
8
0
10
221
20
-72.8
11
221
21
-58.8
0
LINE
8
0
10
221
20
-58.8
11
207
21
-58.8
0
LINE
8
0
10
207
20
-58.8
11
207
21
-72.8
0
ENDSEC
0
EOF